<?xml version="1.0" encoding="UTF-8" standalone="no"?>
<!-- Created with Inkscape (http://www.inkscape.org/) -->

<svg
   width="480"
   height="480"
   viewBox="0 0 127 127"
   version="1.1"
   id="svg5"
   inkscape:export-filename="/home/frederik/Repositories/myown/firefox-addon-highlight-tabs/dist/icons/icon-96.png"
   inkscape:export-xdpi="19.200001"
   inkscape:export-ydpi="19.200001"
   inkscape:version="1.1.1 (eb90963e84, 2021-10-02)"
   sodipodi:docname="icon.svg"
   xmlns:inkscape="http://www.inkscape.org/namespaces/inkscape"
   xmlns:sodipodi="http://sodipodi.sourceforge.net/DTD/sodipodi-0.dtd"
   xmlns="http://www.w3.org/2000/svg"
   xmlns:svg="http://www.w3.org/2000/svg">
  <sodipodi:namedview
     id="namedview7"
     pagecolor="#505050"
     bordercolor="#ffffff"
     borderopacity="1"
     inkscape:pageshadow="0"
     inkscape:pageopacity="0"
     inkscape:pagecheckerboard="1"
     inkscape:document-units="px"
     showgrid="true"
     units="px"
     width="480px"
     inkscape:snap-text-baseline="true"
     inkscape:zoom="1.1474186"
     inkscape:cx="226.15983"
     inkscape:cy="314.61927"
     inkscape:window-width="1920"
     inkscape:window-height="1021"
     inkscape:window-x="0"
     inkscape:window-y="0"
     inkscape:window-maximized="1"
     inkscape:current-layer="layer7">
    <inkscape:grid
       type="xygrid"
       id="grid824"
       spacingx="0.52916667"
       spacingy="0.52916667"
       empspacing="4" />
    <sodipodi:guide
       position="0,127"
       orientation="0,480"
       id="guide50154" />
    <sodipodi:guide
       position="127,127"
       orientation="480,0"
       id="guide50156" />
    <sodipodi:guide
       position="127,0"
       orientation="0,-480"
       id="guide50158" />
    <sodipodi:guide
       position="0,0"
       orientation="-480,0"
       id="guide50160" />
  </sodipodi:namedview>
  <defs
     id="defs2" />
  <g
     inkscape:groupmode="layer"
     id="layer6"
     inkscape:label="background">
    <rect
       style="fill:#ffffff;fill-opacity:1;stroke:none;stroke-width:2.11667;stroke-linecap:round;stroke-linejoin:round;stroke-opacity:1"
       id="rect42695"
       width="127"
       height="127"
       x="0"
       y="0"
       ry="0" />
  </g>
  <g
     inkscape:groupmode="layer"
     id="layer7"
     inkscape:label="window">
    <rect
       style="display:inline;fill:#b4ada9;fill-opacity:1;stroke:#000000;stroke-width:2.11667;stroke-linecap:round;stroke-linejoin:round"
       id="rect1456"
       width="190.49998"
       height="114.3"
       x="-27.516649"
       y="6.3499999"
       ry="4.8424039" />
    <rect
       style="display:inline;fill:#897d77;fill-opacity:1;stroke:#000000;stroke-width:2.11667;stroke-linecap:round;stroke-linejoin:round"
       id="rect1456-6"
       width="182.03333"
       height="76.200005"
       x="-23.283316"
       y="40.216667"
       ry="4.8424039" />
  </g>
  <g
     inkscape:label="tabs"
     inkscape:groupmode="layer"
     id="layer1"
     style="display:inline">
    <rect
       style="fill:#f65a0a;stroke:#000000;stroke-width:2.11667;stroke-linecap:round;stroke-linejoin:round"
       id="rect848"
       width="42.333332"
       height="25.400002"
       x="23.283367"
       y="10.58333"
       ry="4.8424039" />
    <rect
       style="fill:#897d77;fill-opacity:1;stroke:#000000;stroke-width:2.11667;stroke-linecap:round;stroke-linejoin:round"
       id="rect848-3-6-5"
       width="42.333309"
       height="25.400003"
       x="-23.283298"
       y="10.583323"
       ry="4.8424039" />
    <rect
       style="fill:#897d77;fill-opacity:1;stroke:#000000;stroke-width:2.11667;stroke-linecap:round;stroke-linejoin:round"
       id="rect848-3-6-5-3"
       width="42.333309"
       height="25.400003"
       x="69.850029"
       y="10.583326"
       ry="4.8424039" />
    <rect
       style="fill:#897d77;fill-opacity:1;stroke:#000000;stroke-width:2.11667;stroke-linecap:round;stroke-linejoin:round"
       id="rect848-3-6-5-5"
       width="42.333309"
       height="25.400003"
       x="116.41669"
       y="10.58333"
       ry="4.8424039" />
  </g>
  <g
     inkscape:groupmode="layer"
     id="layer5"
     inkscape:label="text highlight">
    <path
       style="fill:#f65a0a;fill-opacity:1;stroke:none;stroke-width:8.36336;stroke-linecap:round;stroke-linejoin:round"
       id="path42510"
       d="M 2.6121074,74.30188 C 20.897279,72.7444 39.171785,71.69863 57.43592,71.03815 c 18.69206,-0.67598 37.312416,0.93814 55.99571,0.53005 0.99499,-0.0433 1.99004,-0.0872 2.98504,-0.1307 0,0 7.27433,-14.56098 7.27433,-14.56098 v 0 c -1.09062,0.245127 -2.18126,0.490187 -3.27187,0.735294 -19.44717,3.574455 -38.838123,3.703132 -58.214678,3.96054 -17.293879,-0.126744 -34.619906,0.172847 -51.809791,-2.68126 0,0 -7.7825545,15.410816 -7.7825545,15.410816 z" />
  </g>
  <g
     inkscape:groupmode="layer"
     id="layer4"
     inkscape:label="text"
     style="display:none">
    <text
       xml:space="preserve"
       style="font-style:normal;font-weight:normal;font-size:22.5778px;line-height:1;font-family:sans-serif;letter-spacing:0.3175px;fill:#000000;fill-opacity:1;stroke:none;stroke-width:0.264583"
       x="6.3499999"
       y="69.849998"
       id="text5354"><tspan
         sodipodi:role="line"
         id="tspan5352"
         style="font-style:normal;font-variant:normal;font-weight:normal;font-stretch:normal;font-size:22.5778px;font-family:'Permanent Marker';-inkscape-font-specification:'Permanent Marker';stroke-width:0.264583"
         x="6.3499999"
         y="69.849998"
         dy="0">Highlight</tspan><tspan
         sodipodi:role="line"
         style="font-style:normal;font-variant:normal;font-weight:normal;font-stretch:normal;font-size:22.5778px;font-family:'Permanent Marker';-inkscape-font-specification:'Permanent Marker';stroke-width:0.264583"
         x="6.3499999"
         y="95.835297"
         id="tspan5356">Tabs</tspan></text>
  </g>
  <g
     inkscape:groupmode="layer"
     id="g61109"
     inkscape:label="text object">
    <g
       aria-label="Highlight Tabs"
       id="text61107"
       style="font-size:22.5778px;line-height:1;letter-spacing:0.3175px;stroke-width:0.264583">
      <path
         id="path66065"
         style="font-family:'Permanent Marker';-inkscape-font-specification:'Permanent Marker'"
         d="m 19.060547,53.855469 c -0.847633,0.770653 -0.753708,2.053998 -0.476563,3.0625 -0.59646,-7.33e-4 -0.572401,0.5057 -0.50891,0.938596 0.01298,1.261404 -0.367998,2.483886 -0.483277,3.735232 -2.037217,1.017524 -4.340835,1.202753 -6.517578,1.771484 0.381199,-0.505289 -0.018,-0.920246 0.117605,-1.429612 0.294291,-1.481418 0.59757,-2.967426 0.70466,-4.476638 -0.575319,-0.996157 -1.46392,-1.793846 -1.912109,-2.867187 -0.9552054,0.995283 -0.9423245,2.517752 -1.0945776,3.810918 -0.053497,0.950801 -0.1345662,1.89986 -0.3077662,2.837519 -0.2775165,0.07691 -0.05197,0.771378 -0.2462852,1.063041 -0.1000221,0.596868 -0.605892,1.033813 -0.5587844,1.656764 -0.04356,0.653579 -0.3045736,1.278117 -0.5718835,1.846602 -0.00596,0.529831 -0.321048,1.012672 -0.1254451,1.560153 0.3270637,0.918476 -0.3839183,0.366074 -0.021704,0.914623 0.4006912,0.408342 0.610594,1.119337 1.1588674,1.316239 0.5215592,0.09428 0.956319,-0.259335 1.4042969,-0.460937 -0.7066033,-0.820475 0.3578207,-0.315313 0.6324242,-0.789457 0.319978,-0.459071 0.404533,-1.087225 0.655773,-1.533241 1.739453,-1.022872 3.61818,-1.942795 5.662975,-2.087459 -0.14118,1.008493 -0.624474,2.054497 -0.341797,3.06836 0.31901,0.563232 0.816485,1.088126 1.228515,1.49414 0.992051,-0.20418 2.193035,-1.036685 1.865235,-2.185547 -0.214492,-0.441973 0.0234,-0.927867 -0.164063,-1.376953 0.630446,-0.556191 0.727428,-1.460066 1.133559,-2.146095 0.115505,-1.651729 0.984789,-3.199115 0.733669,-4.875178 -0.06374,-0.586556 0.0068,-1.252783 -0.169962,-1.791227 -0.857867,-0.854248 -1.129364,-2.086564 -1.710938,-3.115234 l -0.08262,0.05633 z" />
      <path
         id="path66067"
         style="font-family:'Permanent Marker';-inkscape-font-specification:'Permanent Marker'"
         d="m 26.869141,56.904297 c -0.449068,0.263418 -0.925233,0.591754 -0.941407,1.152344 -0.192918,0.438197 -0.467371,0.825491 -0.411809,1.321939 -0.198908,0.349088 -0.211886,0.612228 -0.207331,1.013998 -0.330814,1.609989 -1.108838,3.137052 -1.001953,4.822266 -0.0035,0.757968 -0.271656,1.493616 0.06355,2.21942 0.216297,0.724411 0.411552,1.467589 0.762621,2.139955 0.656758,0.16109 1.60613,-0.218097 1.402513,-1.032925 -0.568976,-2.890718 0.309465,-5.80839 1.312331,-8.496372 -0.465319,-0.566531 -3.51e-4,-1.433613 -0.560668,-1.913015 -0.209253,-0.383637 -0.28567,-0.820786 -0.370972,-1.245188 z" />
      <path
         id="path66069"
         style="font-family:'Permanent Marker';-inkscape-font-specification:'Permanent Marker'"
         d="m 39.220703,56.943359 c -1.537754,1.236774 -3.539899,1.849266 -4.865234,3.355469 -0.627659,0.19471 -0.86627,0.929491 -1.447373,1.235919 -1.024634,0.972523 -1.856928,2.200741 -2.382705,3.49455 -0.114604,0.416601 0.131054,0.755718 0.08789,1.195312 0.101054,1.466811 1.011925,3.04183 2.599278,3.21262 0.762389,0.136161 1.51652,-0.166437 2.291347,-0.08957 0.372638,-0.29493 0.944165,-0.159347 1.421153,-0.300033 1.120969,-0.03126 2.12146,-0.597075 3.220101,-0.795511 1.652342,-0.451774 3.572352,-0.801731 4.686871,-2.228674 0.34299,-0.330998 0.131602,-0.875706 -0.273437,-1.046876 -0.604208,-0.70092 -1.329804,-1.259605 -2.191889,-1.607345 -0.602868,-0.321382 -1.21595,-0.630311 -1.778814,-1.019608 -0.38076,0.345494 -1.201387,0.472674 -0.798829,1.074219 -0.116122,0.395094 -0.101044,0.83836 0.355469,1.019531 0.791567,0.330154 0.24675,0.698451 1.164009,0.822924 1.106243,0.217896 0.409269,0.379495 -0.313791,0.540279 -1.650508,0.43893 -3.30814,0.960018 -4.998655,1.158282 -0.363019,0.601621 -1.071406,0.04428 -1.63317,0.210281 -0.573847,0.04885 -1.149734,0.01891 -1.724252,-0.0052 -0.256164,-0.453482 -0.697342,-0.926574 -0.177443,-1.378198 1.450663,-2.138491 3.37655,-3.985502 5.60713,-5.29563 0.982701,-0.537557 1.994615,-1.018857 2.978516,-1.552735 -0.495157,-0.56609 -0.122355,-0.722613 -0.109375,-1.091797 -0.483177,-0.352 -1.103184,-0.55595 -1.523438,-0.955078 -0.06572,0.01054 -0.156332,-0.05672 -0.193359,0.04687 z" />
      <path
         id="path66071"
         style="font-family:'Permanent Marker';-inkscape-font-specification:'Permanent Marker'"
         d="m 55.486328,56.787109 c -0.549961,0.664747 -0.486961,1.616846 -0.259766,2.398438 -0.593185,0.06493 -0.41606,0.595522 -0.419921,1.009765 -0.0532,0.99009 -0.333734,1.949975 -0.433594,2.935547 -1.751864,0.920034 -3.748558,1.039326 -5.59375,1.550782 0.307038,-0.589995 -0.07959,-1.130441 0.186478,-1.73942 0.162192,-1.11362 0.528572,-2.261728 0.454998,-3.372614 -0.471617,-0.715848 -1.137615,-1.470191 -1.516476,-2.145779 -0.928209,1.439222 -0.635218,3.265805 -0.953493,4.882277 -0.04449,0.524647 -0.216453,0.722708 -0.245726,1.254442 -0.189728,0.665249 -0.571521,1.22243 -0.571526,1.933118 -0.09782,0.587709 -0.463215,1.061317 -0.498786,1.650866 -0.229417,0.400518 0.215126,1.239437 -0.01178,1.391118 -0.222489,-0.03388 0.511072,0.809422 0.669979,1.091304 0.4343,0.193383 0.868635,-0.100639 1.248047,-0.287109 -0.567206,-0.651379 0.65964,-0.245207 0.685717,-0.882554 0.301405,-0.452733 0.181259,-1.138245 0.810652,-1.288524 1.369789,-0.804285 2.867648,-1.480493 4.480193,-1.53986 -0.05578,0.869598 -0.492063,1.748033 -0.265625,2.611328 0.295839,0.407328 0.489759,1.135149 1.056569,1.142742 0.813758,-0.161699 1.756046,-0.95991 1.302806,-1.853679 0.0377,-0.389832 -0.147135,-0.857163 0.03258,-1.16376 0.428411,-0.496845 0.602949,-1.185366 0.848517,-1.765303 0.124216,-1.394407 0.843136,-2.704981 0.579826,-4.127021 -0.0621,-0.563329 0.10474,-1.225949 -0.423811,-1.600166 -0.459718,-0.667369 -0.718548,-1.444423 -1.072266,-2.167969 l -0.07385,0.06743 z" />
      <path
         id="path66073"
         style="font-family:'Permanent Marker';-inkscape-font-specification:'Permanent Marker'"
         d="m 62.023438,57.664062 c -0.608884,2.079759 -1.490686,4.103181 -2.173829,6.134766 0.111776,0.514385 -0.472544,0.980217 -0.455078,1.552734 -0.301025,0.999553 -0.414047,2.405665 0.40625,3.283204 0.12103,0.990343 1.344886,1.13152 2.158003,1.005598 1.178982,-0.106222 2.269145,-0.771441 3.517073,-0.740875 0.917452,-0.141341 1.869262,-0.13904 2.764779,0.05551 0.417651,-0.09888 0.938972,0.01426 1.181239,-0.402264 -0.22318,-0.37704 0.0191,-1.044118 -0.582009,-1.100866 -0.516348,-0.150928 -0.982107,-0.490042 -1.46135,-0.645227 -0.828898,-0.20235 -1.762309,-0.04791 -2.636958,-0.02738 -0.664402,-0.04191 -1.283877,0.283669 -1.876639,0.450702 -0.487032,-0.188171 -0.96249,0.0428 -1.423513,0.188009 0.01626,-1.376743 0.363328,-2.711426 0.945621,-3.953446 0.335858,-0.526983 0.227602,-1.21932 0.607546,-1.686388 0.362613,-0.960395 0.715439,-1.941007 1.110896,-2.903135 0.182762,-0.566662 0.479754,-0.979125 -0.100456,-1.451449 -0.384014,-0.24823 -0.955178,-0.194346 -1.368389,-0.461283 -0.608134,-0.468379 -0.419992,0.331478 -0.613186,0.701794 z" />
      <path
         id="path66075"
         style="font-family:'Permanent Marker';-inkscape-font-specification:'Permanent Marker'"
         d="m 75.275391,56.902344 c -0.44472,0.269882 -0.922231,0.592936 -0.9375,1.154297 -0.192919,0.438197 -0.467372,0.825491 -0.41181,1.321939 -0.198908,0.349088 -0.211886,0.612228 -0.207331,1.013998 -0.330814,1.609989 -1.108838,3.137052 -1.001953,4.822266 -0.0035,0.757968 -0.271656,1.493616 0.06355,2.21942 0.214908,0.724827 0.413804,1.465561 0.760668,2.139955 0.657589,0.160953 1.607047,-0.216807 1.404465,-1.032925 -0.569813,-2.890797 0.309783,-5.808326 1.312331,-8.496372 -0.464141,-0.566275 -0.0035,-1.432864 -0.560668,-1.913015 -0.210887,-0.3833 -0.284249,-0.82612 -0.372925,-1.247141 z" />
      <path
         id="path66077"
         style="font-family:'Permanent Marker';-inkscape-font-specification:'Permanent Marker'"
         d="m 87.630859,56.943359 c -1.538511,1.236464 -3.53875,1.849993 -4.865234,3.355469 -0.627278,0.195831 -0.869667,0.926925 -1.447768,1.237763 -1.025709,0.970582 -1.856309,2.199833 -2.38231,3.492706 -0.08922,0.443694 0.112742,0.844519 0.104628,1.311792 0.109445,1.470802 1.104875,2.986524 2.681007,3.113583 0.730009,0.086 1.451093,-0.17491 2.19288,-0.107016 0.372638,-0.29493 0.944165,-0.159347 1.421153,-0.300033 1.120969,-0.03126 2.12146,-0.597075 3.220101,-0.795511 1.656105,-0.454565 3.588818,-0.802978 4.696637,-2.2443 0.335019,-0.330251 0.111374,-0.865617 -0.287109,-1.03125 -0.600492,-0.7032 -1.327033,-1.259577 -2.187983,-1.607345 -0.602867,-0.321382 -1.21595,-0.630311 -1.778814,-1.019608 -0.38076,0.345494 -1.201386,0.472674 -0.798828,1.074219 -0.112513,0.394775 -0.118731,0.836692 0.353515,1.017578 0.803073,0.325695 0.24252,0.700225 1.165962,0.824877 1.106243,0.217896 0.409269,0.379495 -0.31379,0.540279 -1.650498,0.439047 -3.308143,0.959858 -4.998656,1.158282 -0.363019,0.601621 -1.071406,0.04428 -1.63317,0.210281 -0.573846,0.04885 -1.149733,0.01891 -1.724252,-0.0052 -0.256164,-0.453482 -0.697342,-0.926574 -0.177443,-1.378198 1.450753,-2.138312 3.376566,-3.985919 5.607131,-5.29563 0.983179,-0.536724 1.993836,-1.019961 2.978515,-1.552735 -0.500335,-0.567307 -0.114392,-0.723454 -0.111328,-1.09375 -0.483681,-0.349848 -1.101613,-0.555041 -1.521484,-0.953125 -0.06572,0.01054 -0.156333,-0.05672 -0.19336,0.04687 z" />
      <path
         id="path66079"
         style="font-family:'Permanent Marker';-inkscape-font-specification:'Permanent Marker'"
         d="m 103.89648,56.787109 c -0.54996,0.664747 -0.48696,1.616846 -0.25976,2.398438 -0.59319,0.06493 -0.41606,0.595522 -0.41992,1.009765 -0.0532,0.99009 -0.33374,1.949975 -0.4336,2.935547 -1.73497,0.913758 -3.729703,1.037257 -5.593747,1.550782 0.306364,-0.590288 -0.07915,-1.13022 0.186478,-1.73942 0.165072,-1.11454 0.525135,-2.26248 0.454679,-3.374382 -0.472854,-0.714466 -1.137194,-1.469128 -1.516157,-2.144011 -0.928318,1.439002 -0.635132,3.26588 -0.953493,4.882277 -0.0433,0.524208 -0.216636,0.719978 -0.245726,1.250536 -0.186529,0.667396 -0.572467,1.224771 -0.571526,1.937024 -0.09792,0.587117 -0.462142,1.060603 -0.498786,1.650866 -0.229417,0.400518 0.215126,1.239437 -0.01178,1.391118 -0.221659,-0.03325 0.511436,0.811214 0.671932,1.093257 0.43616,0.190162 0.866019,-0.104753 1.246094,-0.291015 -0.56727,-0.649533 0.660893,-0.243472 0.685717,-0.880601 0.301405,-0.452733 0.181259,-1.138245 0.810653,-1.288524 1.369788,-0.804285 2.867648,-1.480493 4.480188,-1.53986 -0.0571,0.869272 -0.491,1.747838 -0.26562,2.611328 0.29584,0.407328 0.48976,1.135149 1.05657,1.142742 0.81383,-0.161662 1.75597,-0.959894 1.3028,-1.853679 0.0342,-0.390433 -0.14552,-0.857381 0.0326,-1.16376 0.42841,-0.496845 0.60295,-1.185366 0.84852,-1.765303 0.12268,-1.394638 0.84304,-2.705342 0.57982,-4.127021 -0.0609,-0.563545 0.10274,-1.224692 -0.42381,-1.600166 -0.45971,-0.667369 -0.71854,-1.444423 -1.07226,-2.167969 l -0.0738,0.06743 z" />
      <path
         id="path66081"
         style="font-family:'Permanent Marker';-inkscape-font-specification:'Permanent Marker'"
         d="m 118.26367,56.775391 c -1.49044,0.101506 -2.95424,0.43178 -4.44531,0.527343 -0.28199,-0.385487 -0.62357,-0.464208 -0.70703,0.103516 -1.86013,0.158809 -3.71674,0.424505 -5.58789,0.382812 -0.4216,0.465284 0.12672,1.057421 0.18554,1.572266 0.25946,0.371311 0.62578,0.633284 1.0961,0.5 0.67597,-0.03428 1.36091,-0.0203 2.01173,-0.152263 0.63289,0.03149 1.27056,-0.123197 1.9078,-0.150471 -0.40452,1.048772 -0.87615,2.091927 -1.3457,3.085937 -0.53021,1.602499 -1.45311,3.162425 -1.31641,4.933594 0.29931,0.661824 0.23194,1.661645 1.04297,1.886719 0.33201,0.38368 1.16169,0.55232 1.35742,-0.06445 0.16139,-0.495209 -0.66428,-0.374984 -0.66016,-0.828125 -0.47141,-0.425334 -0.003,-1.041808 -0.14843,-1.5625 0.33571,-0.360849 0.24561,-1.013879 0.5957,-1.375 0.28946,-0.580458 0.42189,-1.264309 0.80561,-1.805461 0.21071,-0.737778 0.7,-1.350565 0.86849,-2.10679 0.35479,-0.846848 0.76959,-1.669215 1.02512,-2.554546 1.67731,-0.106962 3.33994,-0.501235 5.02148,-0.447266 0.3307,-0.245484 1.1076,-0.0866 0.96289,-0.699219 -0.18157,-0.520621 -0.74909,-0.763507 -1.04687,-1.199218 -0.5371,-0.08459 -1.08177,-0.06913 -1.62305,-0.04687 z" />
      <path
         id="path66083"
         style="font-family:'Permanent Marker';-inkscape-font-specification:'Permanent Marker'"
         d="m 20.058594,79.919922 c -1.784969,0.132289 -3.544992,0.483522 -5.330078,0.613281 -0.296297,-0.500354 -0.869025,-0.560854 -0.911585,0.132976 -2.213412,0.168662 -4.4697553,0.526225 -6.7134154,0.447102 -0.526884,0.649734 0.1149244,1.438793 0.2421875,2.134766 0.3431877,0.329668 0.6556746,0.719586 1.2175782,0.570312 0.7465073,-0.0074 1.5029977,-0.05122 2.2376877,-0.117353 0.746772,-0.08013 1.549083,-0.140997 2.322078,-0.201006 -0.125349,0.933214 -0.773232,1.707225 -0.822266,2.648438 -0.74816,0.418428 -0.662164,1.404264 -1.057084,2.086507 -0.565944,1.550701 -1.375016,3.189533 -1.077681,4.868571 0.193177,0.637857 0.357455,1.311344 0.66318,1.879069 0.373595,0.217082 0.842243,0.473631 1.229398,0.743977 0.567038,0.226651 1.412561,-0.35741 1.103515,-0.990234 -0.661729,-0.288345 -1.239968,-1.024328 -0.933593,-1.77539 0.128561,-0.887146 0.378422,-1.79856 0.859981,-2.559453 0.147377,-0.714368 0.492761,-1.361226 0.842632,-1.97626 0.287951,-0.840102 0.802699,-1.566394 1.031005,-2.43166 0.412933,-0.997465 0.843921,-1.987261 1.22146,-2.999424 1.984475,-0.162501 3.958606,-0.5989 5.949218,-0.556641 0.404159,-0.284365 1.10408,-0.09213 1.248485,-0.638968 0.06663,-0.86928 -0.934424,-1.21951 -1.359813,-1.835641 -0.650916,-0.086 -1.308597,-0.06879 -1.96289,-0.04297 z" />
      <path
         id="path66085"
         style="font-family:'Permanent Marker';-inkscape-font-specification:'Permanent Marker'"
         d="m 26.175781,83.613281 c -0.519714,0.676675 -1.180773,1.45958 -2.048828,1.589844 -0.845375,-0.195671 -1.039584,0.916704 -1.376752,1.454677 -0.206326,0.535356 -0.650098,0.989423 -0.683795,1.54337 -0.878608,1.884244 -1.920445,3.714292 -2.601898,5.67598 0.0013,0.423949 0.07189,0.950985 0.347992,1.284957 0.209334,0.280295 0.742552,0.592015 0.900391,0.128907 0.354023,-0.1674 0.878427,-0.283935 0.773781,-0.784264 0.154309,-0.605468 0.360713,-1.252744 0.608822,-1.801302 0.165513,-0.379011 0.364776,-0.787159 0.638881,-1.070684 0.255741,-0.622155 0.51554,-1.21088 0.779297,-1.833985 0.117591,0.440049 0.535077,-0.728196 0.76973,-0.930988 0.624617,-1.119541 1.608833,-1.976455 2.154098,-3.147137 0.401891,1.523185 0.80105,3.046654 1.162109,4.580078 -1.271384,0.292472 -2.57194,0.359952 -3.867187,0.470704 0.09798,0.485181 0.261701,0.983973 0.329927,1.426194 0.342409,0.641402 1.167746,0.357856 1.7609,0.288292 0.840813,-0.232381 1.706982,-0.488363 2.575189,-0.212533 0.122369,0.813419 -0.05474,1.848167 -0.982422,2.082031 0.01589,0.184393 0.552998,0.513925 0.43164,0.876953 0.13997,0.409921 0.826436,0.453289 1.175197,0.169989 0.971299,-0.476744 1.701966,-1.597355 1.355813,-2.692877 -0.01678,-0.49074 -0.47574,-1.27569 0.231618,-1.425441 0.425838,-0.221818 0.924466,-0.568491 1.110419,-0.971593 -0.268925,-0.378386 -0.815061,-0.239361 -1.042969,-0.675781 -0.422065,0.105412 -1.147988,0.242977 -1.170171,-0.379395 -0.403266,-1.227802 -0.628153,-2.51736 -0.856848,-3.782995 -0.112436,-0.640099 -0.08956,-1.377682 -0.38509,-1.943079 -0.530018,-0.249709 -1.137719,-0.267339 -1.669922,-0.511719 -0.139974,0.197266 -0.279948,0.394532 -0.419922,0.591797 z" />
      <path
         id="path66087"
         style="font-family:'Permanent Marker';-inkscape-font-specification:'Permanent Marker'"
         d="m 40,82.730469 c -1.20163,0.09381 -2.421057,0.02416 -3.599927,0.366014 -1.39954,0.345358 -3.044246,0.43419 -4.097308,1.536291 -0.36635,0.397366 0.284063,0.862693 0.478485,1.214882 0.333082,0.329376 0.855078,0.844753 1.316406,0.613282 0.154374,-0.742217 0.997783,-0.865345 1.584614,-0.935194 1.76782,-1.116215 3.911779,-1.272841 5.946636,-1.170275 -1.075033,1.326923 -2.285524,2.644373 -3.943545,3.222614 -0.400927,0.06283 -0.472054,-0.775333 -0.94919,-0.892862 -0.32822,-0.116684 -1.063283,-1.016085 -1.050624,-0.624674 0.26131,0.92331 -0.440071,1.740196 -0.453025,2.637331 -0.415151,1.06258 -0.413145,2.31184 -1.004006,3.284544 -0.229547,0.336782 -0.269464,0.851702 -0.396485,1.210937 0.415761,0.652807 -0.382399,0.658155 -0.220703,1.21875 0.320469,0.555523 0.574967,1.35729 1.326172,1.345703 0.28411,-0.547297 0.594624,-0.961685 1.115274,-0.377002 0.661508,0.770014 0.716691,-0.17246 1.085263,0.03538 0.369514,0.486872 0.901806,0.346308 1.395166,0.163886 0.521015,-0.448115 1.337874,-0.320964 1.957031,-0.642578 1.001804,-0.44903 2.114212,-0.82654 2.890362,-1.626148 0.48159,-0.445302 0.447285,-0.771506 0.318471,-1.094552 0.414377,-0.316708 -0.06111,-0.813455 -0.181489,-1.173831 -0.450745,-0.617166 -1.056679,-1.110081 -1.6875,-1.556641 -0.257027,-0.302473 -0.98791,-0.708011 -0.75531,-1.074326 0.771765,-1.07332 2.17489,-1.820187 2.306091,-3.253799 C 43.117987,84.797213 43.19192,84.2489 42.700569,84.0012 42.26317,83.592475 41.752496,83.299053 41.289062,82.943359 40.904769,83.38512 40.486945,82.5757 40,82.730469 Z m -0.08594,6.886719 c 0.844779,-0.0099 1.655564,0.27447 2.386719,0.679687 0.161603,0.707228 -0.283188,1.309312 -0.887752,1.623207 -0.236824,0.36338 -0.520082,0.599212 -0.998967,0.693199 -1.468148,0.674857 -2.961248,1.353547 -4.591768,1.505983 -0.429329,-0.01228 0.280062,-0.992985 0.29533,-1.383022 0.294403,-0.862036 0.610821,-1.715737 0.921438,-2.57218 0.971003,-0.128095 1.88429,-0.549874 2.875,-0.546874 z" />
      <path
         id="path66089"
         style="font-family:'Permanent Marker';-inkscape-font-specification:'Permanent Marker'"
         d="m 54.21875,82.783203 c -2.190314,0.130865 -4.249488,0.991147 -6.229228,1.717942 -0.854614,0.278889 -2.000699,0.637464 -2.260156,1.58676 -0.02515,0.409795 -0.125679,0.762483 -0.01843,1.166001 -0.239593,0.53994 0.468854,0.571181 0.638671,0.931641 0.981426,0.44155 2.094078,0.306595 3.109375,0.585937 0.48343,-0.305876 0.959773,0.31018 1.46945,0.360977 0.472472,0.124183 0.875758,0.418083 1.360628,0.500351 0.156085,0.390922 0.430898,0.822844 0.115235,1.244141 -0.19888,0.418892 -0.718142,0.591617 -0.8125,1.070313 -1.624854,0.768105 -3.233477,1.946696 -5.128906,1.74414 -5.3e-4,0.622454 0.07,1.222874 0.240234,1.791016 0.26963,0.302674 0.820448,0.124446 1.207031,0.164062 0.394453,-0.07044 1.343648,-1.221844 1.13398,-0.374573 0.16646,0.211831 0.85422,-0.264724 1.220698,-0.362814 1.507398,-0.694182 3.07936,-1.83651 3.448057,-3.545816 0.02477,-0.608885 -0.0074,-1.240419 -0.507813,-1.660156 -0.170425,-0.415118 -0.730178,-0.568712 -0.671875,-1.095703 -0.05636,-0.557298 -0.548894,-0.938454 -1.101562,-0.841797 -0.121199,-0.739555 -1.144881,-0.432979 -1.496366,-1.017889 -0.252279,-0.295863 -0.384922,-1.295609 0.293241,-1.138361 0.549827,0.07572 0.974835,-0.350856 1.466796,-0.322266 0.714276,-0.112913 1.512548,-0.572352 2.210938,-0.136718 0.975452,-0.07856 1.978052,-0.190189 2.939453,-0.0039 0.676525,-0.197066 0.243765,-0.553482 0.01367,-0.921875 -0.131773,-0.473727 -0.538396,-0.813339 -0.738281,-1.259765 -0.619023,-0.164076 -1.263398,-0.22666 -1.902344,-0.181641 z" />
    </g>
  </g>
</svg>
